<svg xmlns="http://www.w3.org/2000/svg" width="600" height="400" viewBox="0 0 600 400"><rect width="100%" height="100%" fill="#DDDDDD"/><path fill="#999999" d="M185.645 159.625q1.1 0 1.95.85l5.3 5.75q-4.4 5.45-10.82 8.35-6.43 2.9-15.43 2.9-8.05 0-14.47-2.75-6.43-2.75-10.98-7.65t-6.97-11.7q-2.43-6.8-2.43-14.85 0-8.15 2.6-14.93 2.6-6.77 7.33-11.67 4.72-4.9 11.27-7.63 6.55-2.72 14.5-2.72 7.9 0 14.03 2.6 6.12 2.6 10.42 6.8l-4.5 6.25q-.4.6-1.02 1.05-.63.45-1.73.45-.75 0-1.55-.43-.8-.42-1.75-1.05-.95-.62-2.2-1.37t-2.9-1.38q-1.65-.62-3.82-1.05-2.18-.42-5.03-.42-4.85 0-8.87 1.72-4.03 1.73-6.93 5-2.9 3.28-4.5 8-1.6 4.73-1.6 10.78 0 6.1 1.73 10.85 1.72 4.75 4.67 8t6.95 4.97q4 1.73 8.6 1.73 2.75 0 4.98-.3 2.22-.3 4.1-.95 1.87-.65 3.55-1.68 1.67-1.02 3.32-2.52.5-.45 1.05-.73.55-.27 1.15-.27m37.25-35.05q5.7 0 10.38 1.85 4.67 1.85 8 5.25 3.32 3.4 5.12 8.3t1.8 10.95q0 6.1-1.8 11t-5.12 8.35q-3.33 3.45-8 5.3-4.68 1.85-10.38 1.85-5.75 0-10.45-1.85t-8.02-5.3q-3.33-3.45-5.15-8.35-1.83-4.9-1.83-11 0-6.05 1.83-10.95 1.82-4.9 5.15-8.3 3.32-3.4 8.02-5.25t10.45-1.85m0 43.35q6.4 0 9.48-4.3 3.07-4.3 3.07-12.6t-3.07-12.65q-3.08-4.35-9.48-4.35-6.5 0-9.62 4.38-3.13 4.37-3.13 12.62t3.13 12.57q3.12 4.33 9.62 4.33m47.1 8.75h-12.35v-51.3h7.55q2.4 0 3.15 2.25l.8 3.8q1.35-1.5 2.83-2.75 1.47-1.25 3.15-2.15 1.67-.9 3.6-1.43 1.92-.52 4.22-.52 4.85 0 7.98 2.62 3.12 2.63 4.67 6.98 1.2-2.55 3-4.38 1.8-1.82 3.95-2.97t4.58-1.7q2.42-.55 4.87-.55 4.25 0 7.55 1.3t5.55 3.8 3.43 6.1q1.17 3.6 1.17 8.25v32.65h-12.35v-32.65q0-4.9-2.15-7.38-2.15-2.47-6.3-2.47-1.9 0-3.52.65-1.63.65-2.85 1.87-1.23 1.23-1.93 3.08t-.7 4.25v32.65h-12.4v-32.65q0-5.15-2.07-7.5-2.08-2.35-6.08-2.35-2.7 0-5.02 1.32-2.33 1.33-4.33 3.63zm71.8-51.3h12.4v51.3h-12.4zm14.1-14.95q0 1.6-.65 3t-1.72 2.45q-1.08 1.05-2.53 1.67-1.45.63-3.1.63-1.6 0-3.02-.63-1.43-.62-2.48-1.67t-1.67-2.45q-.63-1.4-.63-3 0-1.65.63-3.1.62-1.45 1.67-2.5t2.48-1.68q1.42-.62 3.02-.62 1.65 0 3.1.62 1.45.63 2.53 1.68 1.07 1.05 1.72 2.5t.65 3.1m21.6 17.2.85 4.05q1.55-1.55 3.28-2.88 1.72-1.32 3.65-2.25 1.92-.92 4.12-1.45 2.2-.52 4.8-.52 4.2 0 7.45 1.42 3.25 1.43 5.43 4 2.17 2.58 3.3 6.15 1.12 3.58 1.12 7.88v32.65h-12.35v-32.65q0-4.7-2.15-7.28-2.15-2.57-6.55-2.57-3.2 0-6 1.45t-5.3 3.95v37.1h-12.35v-51.3h7.55q2.4 0 3.15 2.25m64.46 22.15q2.29 0 4-.63 1.69-.62 2.82-1.72 1.12-1.1 1.7-2.65t.58-3.4q0-3.8-2.28-6.03-2.28-2.22-6.82-2.22-4.56 0-6.83 2.22-2.27 2.23-2.27 6.03 0 1.8.57 3.35t1.7 2.67q1.12 1.13 2.85 1.75 1.73.63 3.98.63m13.94 29.2q0-1.5-.9-2.45-.89-.95-2.44-1.48-1.56-.52-3.63-.77t-4.4-.38q-2.32-.12-4.8-.22t-4.83-.4q-2.04 1.15-3.32 2.7-1.27 1.55-1.27 3.6 0 1.35.67 2.53.67 1.17 2.15 2.02t3.83 1.33q2.35.47 5.75.47 3.44 0 5.94-.53 2.5-.52 4.13-1.44 1.62-.93 2.37-2.2.75-1.28.75-2.78m-2.44-51.85h14.75v4.6q0 2.2-2.65 2.7l-4.6.85q1.04 2.65 1.04 5.8 0 3.8-1.52 6.87-1.52 3.08-4.23 5.23-2.69 2.15-6.37 3.32-3.67 1.18-7.92 1.18-1.5 0-2.9-.15-1.41-.15-2.75-.4-2.41 1.45-2.41 3.25 0 1.55 1.43 2.27 1.42.73 3.78 1.03 2.35.3 5.35.37 3 .08 6.15.33 3.14.25 6.14.87 3 .63 5.36 1.98 2.35 1.35 3.77 3.67 1.43 2.33 1.43 5.98 0 3.4-1.68 6.6-1.67 3.2-4.85 5.7-3.17 2.5-7.8 4.03-4.62 1.52-10.52 1.52-5.81 0-10.1-1.12-4.3-1.13-7.16-3-2.85-1.88-4.25-4.33-1.39-2.45-1.39-5.1 0-3.6 2.17-6.03 2.17-2.42 5.98-3.87-2.06-1.05-3.26-2.8-1.19-1.75-1.19-4.6 0-1.15.42-2.38.42-1.22 1.25-2.42t2.07-2.28q1.25-1.07 2.96-1.92-3.9-2.1-6.13-5.6t-2.23-8.2q0-3.8 1.53-6.88 1.52-3.07 4.25-5.25 2.73-2.17 6.45-3.32 3.73-1.15 8.13-1.15 3.29 0 6.19.67 2.91.68 5.31 1.98m-217.7 104.05-3.36 6.35q-.6 1.05-1.27 1.53-.67.47-1.67.47-1.06 0-2.28-.78-1.22-.77-2.92-1.72-1.71-.95-3.98-1.72-2.28-.78-5.38-.78-2.8 0-4.89.67-2.11.68-3.53 1.88-1.43 1.2-2.13 2.87-.7 1.68-.7 3.68 0 2.55 1.43 4.25t3.77 2.9q2.36 1.2 5.36 2.15t6.14 2.03q3.15 1.07 6.16 2.5 3 1.42 5.34 3.6 2.36 2.17 3.78 5.32t1.42 7.65q0 4.9-1.67 9.18-1.67 4.27-4.9 7.44-3.22 3.18-7.88 5-4.64 1.83-10.64 1.83-3.45 0-6.81-.67-3.35-.68-6.42-1.93-3.08-1.25-5.78-3-2.69-1.75-4.8-3.9l3.95-6.45q.5-.7 1.3-1.18.8-.47 1.7-.47 1.25 0 2.7 1.02 1.46 1.03 3.46 2.28t4.67 2.28q2.67 1.02 6.42 1.02 5.75 0 8.9-2.72 3.15-2.73 3.15-7.83 0-2.85-1.42-4.65-1.43-1.8-3.77-3.02-2.36-1.23-5.36-2.08t-6.09-1.85q-3.11-1-6.11-2.4t-5.35-3.65-3.77-5.63q-1.43-3.37-1.43-8.32 0-3.95 1.58-7.7t4.58-6.65 7.39-4.65q4.4-1.75 10.11-1.75 6.39 0 11.79 2 5.41 2 9.21 5.6m33.74 13.4q5.7 0 10.38 1.85 4.67 1.85 8 5.25 3.32 3.4 5.13 8.3 1.79 4.9 1.79 10.95 0 6.1-1.79 11-1.81 4.9-5.13 8.35-3.33 3.45-8 5.3-4.68 1.85-10.38 1.85-5.74 0-10.45-1.85-4.7-1.85-8.02-5.3-3.33-3.45-5.15-8.35-1.83-4.9-1.83-11 0-6.05 1.83-10.95 1.82-4.9 5.15-8.3 3.32-3.4 8.02-5.25 4.71-1.85 10.45-1.85m0 43.35q6.41 0 9.48-4.3t3.07-12.6-3.07-12.65-9.48-4.35q-6.49 0-9.62 4.37-3.12 4.38-3.12 12.63t3.12 12.57q3.13 4.33 9.62 4.33m57.46-43.35q5.7 0 10.37 1.85 4.68 1.85 8 5.25 3.33 3.4 5.13 8.3t1.8 10.95q0 6.1-1.8 11t-5.13 8.35q-3.32 3.45-8 5.3-4.67 1.85-10.37 1.85-5.75 0-10.45-1.85t-8.03-5.3q-3.32-3.45-5.15-8.35-1.82-4.9-1.82-11 0-6.05 1.82-10.95 1.83-4.9 5.15-8.3 3.33-3.4 8.03-5.25t10.45-1.85m0 43.35q6.4 0 9.47-4.3 3.08-4.3 3.08-12.6t-3.08-12.65q-3.07-4.35-9.47-4.35-6.5 0-9.63 4.37-3.12 4.38-3.12 12.63t3.12 12.57q3.13 4.33 9.63 4.33m45.45-40.3.85 4.05q1.55-1.55 3.27-2.87 1.73-1.33 3.65-2.25 1.93-.93 4.13-1.46 2.2-.52 4.8-.52 4.2 0 7.45 1.42 3.25 1.43 5.42 4 2.18 2.58 3.3 6.15 1.13 3.58 1.13 7.88v32.65h-12.35v-32.65q0-4.7-2.15-7.28-2.15-2.57-6.55-2.57-3.2 0-6 1.45t-5.3 3.95v37.1h-12.35v-51.3h7.55q2.4 0 3.15 2.25"/></svg>